# //////////////////////////////////////////////////////////////////////////////////
# //                                                                              //
# // rMeshOBJ exporter v1.0 - Mesh exported as triangle faces and not optimized   //
# //                                                                              //
# // more info and bugs-report:  github.com/raysan5/raylib                        //
# // feedback and support:       ray[at]raylib.com                                //
# //                                                                              //
# // Copyright (c) 2018-2023 Ramon Santamaria (@raysan5)                          //
# //                                                                              //
# //////////////////////////////////////////////////////////////////////////////////

# Vertex Count:     20
# Triangle Count:   24

g mesh
v -50.00 0.00 -50.00
v -25.00 0.00 -50.00
v 0.00 0.00 -50.00
v 25.00 0.00 -50.00
v 50.00 0.00 -50.00
v -50.00 0.00 -16.67
v -25.00 0.00 -16.67
v 0.00 0.00 -16.67
v 25.00 0.00 -16.67
v 50.00 0.00 -16.67
v -50.00 0.00 16.67
v -25.00 0.00 16.67
v 0.00 0.00 16.67
v 25.00 0.00 16.67
v 50.00 0.00 16.67
v -50.00 0.00 50.00
v -25.00 0.00 50.00
v 0.00 0.00 50.00
v 25.00 0.00 50.00
v 50.00 0.00 50.00
vt 0.000 0.000
vt 0.250 0.000
vt 0.500 0.000
vt 0.750 0.000
vt 1.000 0.000
vt 0.000 0.333
vt 0.250 0.333
vt 0.500 0.333
vt 0.750 0.333
vt 1.000 0.333
vt 0.000 0.667
vt 0.250 0.667
vt 0.500 0.667
vt 0.750 0.667
vt 1.000 0.667
vt 0.000 1.000
vt 0.250 1.000
vt 0.500 1.000
vt 0.750 1.000
vt 1.000 1.000
vn 0.000 1.000 0.000
vn 0.000 1.000 0.000
vn 0.000 1.000 0.000
vn 0.000 1.000 0.000
vn 0.000 1.000 0.000
vn 0.000 1.000 0.000
vn 0.000 1.000 0.000
vn 0.000 1.000 0.000
vn 0.000 1.000 0.000
vn 0.000 1.000 0.000
vn 0.000 1.000 0.000
vn 0.000 1.000 0.000
vn 0.000 1.000 0.000
vn 0.000 1.000 0.000
vn 0.000 1.000 0.000
vn 0.000 1.000 0.000
vn 0.000 1.000 0.000
vn 0.000 1.000 0.000
vn 0.000 1.000 0.000
vn 0.000 1.000 0.000
f 6/6/6 2/2/2 1/1/1
f 6/6/6 7/7/7 2/2/2
f 7/7/7 3/3/3 2/2/2
f 7/7/7 8/8/8 3/3/3
f 8/8/8 4/4/4 3/3/3
f 8/8/8 9/9/9 4/4/4
f 9/9/9 5/5/5 4/4/4
f 9/9/9 10/10/10 5/5/5
f 11/11/11 7/7/7 6/6/6
f 11/11/11 12/12/12 7/7/7
f 12/12/12 8/8/8 7/7/7
f 12/12/12 13/13/13 8/8/8
f 13/13/13 9/9/9 8/8/8
f 13/13/13 14/14/14 9/9/9
f 14/14/14 10/10/10 9/9/9
f 14/14/14 15/15/15 10/10/10
f 16/16/16 12/12/12 11/11/11
f 16/16/16 17/17/17 12/12/12
f 17/17/17 13/13/13 12/12/12
f 17/17/17 18/18/18 13/13/13
f 18/18/18 14/14/14 13/13/13
f 18/18/18 19/19/19 14/14/14
f 19/19/19 15/15/15 14/14/14
f 19/19/19 20/20/20 15/15/15

